<?xml version="1.0" encoding="UTF-8"?><svg id="_レイヤー_1" xmlns="http://www.w3.org/2000/svg" viewBox="0 0 28.35 28.35"><defs><style>.cls-1{fill:#51b23e;}</style></defs><path class="cls-1" d="m23.67,20.61q-.03.07-.1.24c-.08.23-.09.24-.11.31.34.08.58.2.87.4.53.39.79.91.8,1.56,0,.9-.48,1.61-1.41,2.08-.49.24-.96.37-1.69.45-.09-.36-.17-.5-.45-.93.67-.01,1.09-.11,1.58-.34.66-.32.97-.73.96-1.3,0-.52-.35-.94-.94-1.14-.45.99-.83,1.59-1.43,2.22-.74.79-1.48,1.21-2.16,1.21-.77,0-1.3-.58-1.3-1.44,0-.68.28-1.34.81-1.86.33-.33.63-.54,1.13-.75,0-.26.01-.6.03-1-.09,0-.54,0-1.34-.02-.08,0-.14,0-.16,0-.03,0-.1,0-.19,0v-.93c.37.08.86.12,1.55.11,0,0,.02,0,.18,0q0-.17.03-.5c0-.11.01-.32.01-.47,0-.03,0-.07-.02-.13l1.03.04c-.06.22-.1.44-.14,1.02,1.33-.08,2.5-.26,3.14-.46l.05.95c-.12,0-.15,0-.32.04-.91.15-2.25.29-2.92.31-.02.36-.03.62-.04.8.45-.09.64-.11,1.14-.12.1,0,.17,0,.32.02.09-.27.14-.44.16-.63l.94.26Zm-4.09,2.23c-.25.33-.37.67-.37,1.01,0,.37.19.6.48.6.23,0,.46-.1.72-.32-.11-.54-.16-1.07-.16-1.87-.36.24-.5.37-.67.58Zm1.63.68s.03-.05.09-.12c.39-.44.72-.97,1.02-1.67-.09,0-.13,0-.22,0-.36,0-.66.05-.99.16.01.76.01.85.07,1.43t0,.11s0,.05,0,.09h.02Z"/><path class="cls-1" d="m3.96,25.2c-.31.04-.55-.19-.53-.5l.37-6.2c.02-.31.21-.75.43-.97L18.86,2.92c.22-.22.58-.22.8,0l6.02,6.02c.22.22.22.58,0,.8l-14.22,14.22c-.22.22-.65.43-.96.47l-6.53.77Z"/></svg>