<?xml version="1.0" encoding="UTF-8"?><svg id="_レイヤー_1" xmlns="http://www.w3.org/2000/svg" viewBox="0 0 28.35 28.35"><defs><style>.cls-1{fill:#f6c;}</style></defs><path class="cls-1" d="m3.96,25.2c-.31.04-.55-.19-.53-.5l.37-6.2c.02-.31.21-.75.43-.97L18.86,2.92c.22-.22.58-.22.8,0l6.02,6.02c.22.22.22.58,0,.8l-14.22,14.22c-.22.22-.65.43-.96.47l-6.53.77Z"/><path class="cls-1" d="m26.56,21.93c-2.29,0-4.97,2.67-4.97,4.97,0-2.29-2.67-4.97-4.97-4.97,2.29,0,4.97-2.67,4.97-4.97,0,2.29,2.67,4.97,4.97,4.97Z"/></svg>